<?xml version="1.0" encoding="utf-8"?>
<!-- Generator: Adobe Illustrator 24.0.2, SVG Export Plug-In . SVG Version: 6.00 Build 0)  -->
<svg version="1.1" id="Layer_1" xmlns="http://www.w3.org/2000/svg" xmlns:xlink="http://www.w3.org/1999/xlink" x="0px" y="0px"
	 viewBox="0 0 770.3 650.9" style="enable-background:new 0 0 770.3 650.9;" xml:space="preserve">
<style type="text/css">
	.st0{fill:#FFB9B9;}
	.st1{fill:#E6E6E6;}
	.st2{fill:#f05454;}
	.st3{fill:#2F2E41;}
	.st4{fill:#2F2E41;}
</style>
<path class="st0" d="M523.4,306.3L523.4,306.3c4.6-3.2,5.8-9.5,2.6-14.2c-1.3-1.9-3.1-3.2-5.3-3.9l-23.4-7.5l-12.8,11.1l28.4,15
	C516.2,308.7,520.3,308.5,523.4,306.3z"/>
<path class="st1" d="M484.1,299.2l15.4-17.9l-57.4-62.8l-26.4-61.3c-3.6-8.3-12.6-12.9-21.5-10.9l0,0c-10.1,2.3-16.5,12.4-14.2,22.5
	c0.4,1.6,0.9,3.1,1.6,4.5l34.5,66.4L484.1,299.2z"/>
<polygon class="st2" points="520.9,535.9 518,531.3 512.5,531.3 512.5,529.3 519,529.3 522.6,534.9 "/>
<path class="st2" d="M508.7,531.3h-11.5v-2h11.5V531.3z M493.3,531.3h-11.5v-2h11.5L493.3,531.3z M478,531.3h-11.5v-2H478L478,531.3
	z M462.7,531.3h-11.5v-2h11.5L462.7,531.3z M447.3,531.3h-11.5v-2h11.5V531.3z M432,531.3l-10.7,0l-1-0.1l0.3-2l0.9,0.1H432V531.3z
	 M416.6,530.7l-11.4-1.5l0.3-2l11.4,1.5L416.6,530.7z M401.4,528.7l-11.4-1.5l0.3-2l11.4,1.5L401.4,528.7z M386.2,526.7l-11.4-1.5
	l0.3-2l11.4,1.5L386.2,526.7z M371,524.7l-11.4-1.5l0.3-2l11.4,1.5L371,524.7z"/>
<polygon class="st2" points="350.8,526.9 348.8,526.8 349,519.7 356.1,520.6 355.8,522.6 351,522 "/>
<path class="st2" d="M349.3,580.4l-2-0.1l0.4-13.4l2,0.1L349.3,580.4z M349.8,562.6l-2-0.1l0.4-13.4l2,0.1L349.8,562.6z
	 M350.3,544.7l-2-0.1l0.4-13.4l2,0.1L350.3,544.7z"/>
<polygon class="st2" points="347,591.9 347.2,584.8 349.2,584.9 349,589.8 353.9,589.4 354.1,591.4 "/>
<path class="st2" d="M357.9,591.1l-0.2-2l11.5-0.9l0.2,2L357.9,591.1z M373.2,589.9l-0.2-2l11.5-0.9l0.2,2L373.2,589.9z
	 M388.5,588.7l-0.2-2l11.5-0.9l0.2,2L388.5,588.7z M403.8,587.5l-0.2-2l11.5-0.9l0.2,2L403.8,587.5z M419.1,586.3l-0.2-2l11.5-0.9
	l0.2,2L419.1,586.3z M434.4,585.1l-0.2-2l11.5-0.9l0.2,2L434.4,585.1z M449.7,583.9l-0.2-2l11.5-0.9l0.2,2L449.7,583.9z M465,582.8
	l-0.2-2l11.5-0.9l0.2,2L465,582.8z M480.4,581.6l-0.2-2l11.5-0.9l0.2,2L480.4,581.6z M495.7,580.4l-0.2-2l11.5-0.9l0.2,2
	L495.7,580.4z M511,579.2l-0.2-2l11.5-0.9l0.2,2L511,579.2z M526.3,578l-0.2-2l11.5-0.9l0.2,2L526.3,578z"/>
<polygon class="st2" points="541.6,576.8 541.4,574.8 545.8,574.5 543.4,570.8 545.1,569.8 549.2,576.2 "/>
<path class="st2" d="M540.9,567l-7.5-11.6l1.7-1.1l7.5,11.6L540.9,567z M530.9,551.5l-7.5-11.6l1.7-1.1l7.5,11.6L530.9,551.5z"/>
<circle class="st3" cx="504" cy="551.9" r="68"/>
<polygon class="st2" points="560,630.8 460.5,454.4 438.5,476.4 536.5,630.3 "/>
<polygon class="st2" points="258.5,626.3 482,399.9 500.5,436.4 288.5,636.3 "/>
<circle class="st2" cx="349.5" cy="557.4" r="45"/>
<path class="st3" d="M289.5,570.3c-0.6,0-1,0.4-1,1v8c0,0.6,0.4,1,1,1h25c0.6,0,1-0.4,1-1v-8c0-0.6-0.4-1-1-1H289.5z"/>
<path class="st3" d="M347,458.9c-0.6,0-1,0.4-1,1v8c0,0.6,0.4,1,1,1h25c0.6,0,1-0.4,1-1v-8c0-0.6-0.4-1-1-1H347z"/>
<polygon class="st2" points="468.5,442.4 442.5,442.4 442.5,422.4 452.5,418.4 468.5,430.4 "/>
<rect x="445.5" y="413.4" transform="matrix(0.904 -0.4276 0.4276 0.904 -136.3896 231.4137)" class="st2" width="3" height="12"/>
<path class="st3" d="M448.7,400.3c-0.2,0-0.4,0.1-0.5,0.2l-17.7,11.4c-0.5,0.3-0.6,0.9-0.3,1.4l4.3,6.7c0.3,0.5,0.9,0.6,1.4,0.3
	l17.7-11.4v0c0.5-0.3,0.6-0.9,0.3-1.4l-4.3-6.7c-0.1-0.2-0.4-0.4-0.6-0.4C448.8,400.3,448.7,400.3,448.7,400.3z"/>
<path class="st2" d="M488.5,440.4L488.5,440.4L468,340.9l24-4l16.4,80.2c2.5,10.2-3.8,20.4-14,22.9
	C492.5,440.3,490.5,440.5,488.5,440.4z"/>
<path class="st2" d="M564,321.2l-23.7-1.7c-1.1-0.1-1.9-1-1.9-2.1c0-0.2,0.1-0.4,0.2-0.6l34.5-81.4c0.3-0.6,0.8-1.1,1.5-1.2L598,230
	c1.1-0.2,2.1,0.5,2.3,1.6c0.1,0.4,0,0.7-0.1,1.1L566,320C565.7,320.8,564.9,321.3,564,321.2z"/>
<polygon class="st3" points="543.5,313.4 562.5,315.4 593.5,237.4 573.5,240.4 "/>
<polygon class="st2" points="336.5,527.3 311.5,552.3 275.5,395.4 295.5,398.4 "/>
<path class="st2" d="M307.4,398.1l-4.3-1.3c-8.5,3.7-17.7,5.5-27,5.1c-4.2-0.2-7.4-3.6-7.4-7.8l0,0c0-4.3,3.5-7.8,7.8-7.8h37.7
	c2.1,0,3.8,1.7,3.8,3.8l0,0l0,0c0,4.6-3.7,8.3-8.3,8.3C308.9,398.5,308.1,398.3,307.4,398.1z"/>
<path class="st2" d="M546.3,299.9c-1,0-1.9,0.3-2.7,0.9l-30.7,23.5l-34.4,4.5c-5.9,0.8-10,7.2-10.5,13.1l40.5-5.6
	c5.6-0.5,10.9-2.8,15.2-6.5l25.5-22.1c1.8-1.6,2-4.4,0.5-6.2C548.8,300.5,547.6,299.9,546.3,299.9z"/>
<path class="st2" d="M531.3,284.9c-1,0-1.9,0.3-2.7,0.9l-30.7,23.5l-34.4,4.5c-5.9,0.8-10,7.2-10.5,13.1l40.5-5.6
	c5.6-0.5,10.9-2.8,15.2-6.5l25.5-22.1c1.8-1.6,2-4.4,0.5-6.2C533.8,285.5,532.6,284.9,531.3,284.9z"/>
<path class="st2" d="M550,345.3c-14.5,0-28.1-6.9-36.7-18.6l4-3c13.2,18,38.6,22,56.6,8.8c18-13.2,22-38.6,8.8-56.6
	c-0.7-1-1.5-2-2.3-2.9l3.7-3.3c16.6,18.8,14.8,47.6-4,64.2C571.8,341.3,561.1,345.3,550,345.3L550,345.3z"/>
<rect x="231" y="625.9" class="st2" width="354" height="25"/>
<path class="st0" d="M498.2,332.1L498.2,332.1c5.2-2.1,7.8-8,5.7-13.2c-0.8-2.1-2.3-3.8-4.3-5l-21.1-12.5l-15,8l24.3,21
	C490.7,332.8,494.7,333.5,498.2,332.1z"/>
<path class="st3" d="M332.5,420.4l14,8l86.4-63.6c6.4-4.4,10.7-11.2,11.8-18.9l0,0c1.4-9.8-2.4-19.6-10.1-25.8
	c-19.1-15.5-42.7-29.6-67.7-43.2l-37,18c15.2,31.3,32.2,57,57,57L332.5,420.4z"/>
<path class="st4" d="M326.4,440.7c11.6,11.8,26.9,20.2,44,27c2.6,1,5.7,0.3,7.5-1.8l0,0c2.3-2.6,2.2-6.6-0.2-9.1l-11.1-11.4
	l-6.7-23.8c-14.4,7.1-23.8,5.5-25.6-9.4l-9.1,12.4C321.6,429.5,322.1,436.4,326.4,440.7z"/>
<path class="st3" d="M287.5,546.3l21,1l48-247L274,273.9c-8.2,30.8,4,81.2,25.5,140.5L287.5,546.3z"/>
<circle class="st0" cx="449" cy="105.9" r="33"/>
<polygon class="st0" points="388.5,146.4 409.5,161.4 441.5,129.4 425.5,109.3 "/>
<path class="st1" d="M270.5,276.4c25.9,21.1,54.2,35,89,29c10.5-16.8,18.3-52.3,31.5-67.5c28.8-33.3,43.2-63,34-90
	c-8.9-5.8-8.5-5.8-15-25C359.1,132.3,309.9,189.7,270.5,276.4z"/>
<path class="st4" d="M287.2,566.9c14.9,7.1,32.2,9.7,50.6,10.2c2.8,0.1,5.4-1.6,6.4-4.3l0,0c1.3-3.3-0.2-6.9-3.3-8.4l-14.3-6.9
	l-14.5-20.1c-11.1,11.6-20.5,13.3-27.3,0l-4.3,14.7C278.8,558.1,281.6,564.3,287.2,566.9z"/>
<path class="st1" d="M461.5,316.4l19-14l-42-74l-12.1-65.6c-1.7-8.9-9.4-15.4-18.5-15.4l0,0c-10.4,0-18.8,8.4-18.8,18.8
	c0,1.6,0.2,3.2,0.6,4.7l18.9,72.4L461.5,316.4z"/>
<rect x="355" y="467.9" class="st2" width="11" height="60"/>
<path class="st4" d="M475.1,96.3c2.6,3.1,6.7,4.8,10.7,4.3c4-0.6,7.5-4,7.8-8c0.2-3.5-1.8-6.6-4-9.4c-4.7-6-10.3-11.3-16.6-15.7
	c-3-2.1-6.3-4-10-4.2c-1.8-0.1-3.6,0.2-5.4,0.1c-3.3-0.1-6.4-1.6-9.7-2.3c-6.7-1.5-13.8,0-19.3,4.1c-1.8,1.4-3.5,3-4.9,4.8
	c-4,4.9-6.7,10.7-7.8,16.9c-1.7,9.8,0.4,20.6-4.3,29.4c5.5-0.5,10-4.7,15.2-6.5c3.9-1.3,8.1-1.3,12,0.1c1,0.5,2.1,0.7,3.2,0.6
	c0.9-0.3,1.7-0.9,2.3-1.7l10.1-11c2-2.2,4.4-4.6,7.4-4.9c1.8-0.1,3.6,0.3,5.2,1c4,1.5,7.9,3.4,11.7,5.5"/>
<polygon class="st2" points="456,324.9 453,326.9 473,346.9 485,335.9 465,319.9 "/>
</svg>
