<?xml version="1.0" encoding="utf-8"?>
<!-- Generator: Adobe Illustrator 24.0.2, SVG Export Plug-In . SVG Version: 6.00 Build 0)  -->
<svg version="1.1" id="Layer_1" xmlns="http://www.w3.org/2000/svg" xmlns:xlink="http://www.w3.org/1999/xlink" x="0px" y="0px"
	 viewBox="0 0 882.7 624.3" style="enable-background:new 0 0 882.7 624.3;" xml:space="preserve">
<style type="text/css">
	.st0{fill:#2F2E41;}
	.st1{fill:#E6E6E6;}
	.st2{fill:#A0616A;}
	.st3{fill:#F05454;}
	.st4{fill:#FFB8B8;}
	.st5{fill:#F5F5F5;}
</style>
<rect x="492.2" y="263.2" transform="matrix(0.5426 -0.84 0.84 0.5426 -22.4495 552.5682)" class="st0" width="7.8" height="67.4"/>
<ellipse transform="matrix(0.5426 -0.84 0.84 0.5426 -24.8583 584.694)" class="st0" cx="524.4" cy="315.2" rx="23.4" ry="5.9"/>
<ellipse transform="matrix(0.5426 -0.84 0.84 0.5426 -20.0396 520.4434)" class="st0" cx="467.9" cy="278.6" rx="23.4" ry="5.9"/>
<ellipse class="st1" cx="657.2" cy="607.1" rx="225.4" ry="17.2"/>
<ellipse class="st1" cx="225.4" cy="524.7" rx="225.4" ry="17.2"/>
<path class="st1" d="M842.7,524.6c-0.7,27.6-5.4,55-13.7,81.3c-0.2,0.6-0.4,1.2-0.6,1.8H777c0.1-0.5,0.1-1.2,0.2-1.8
	c3.4-39.3,23.1-278.7-0.4-319.6C778.8,289.7,846.6,399.7,842.7,524.6z"/>
<path class="st1" d="M838.8,606c-0.4,0.6-0.9,1.2-1.3,1.8H799c0.3-0.5,0.6-1.1,1-1.8c6.4-11.5,25.2-45.8,42.6-81.3
	c18.8-38.2,36-77.9,34.5-92.2C877.6,435.6,890.6,534.3,838.8,606z"/>
<path class="st1" d="M479.2,565.6c0.4,14,2.7,27.9,7,41.3c0.1,0.3,0.2,0.6,0.3,0.9h26c0-0.3-0.1-0.6-0.1-0.9
	c-1.7-20-11.7-141.4,0.2-162.2C511.6,446.3,477.1,502.2,479.2,565.6z"/>
<path class="st1" d="M481.1,606.9c0.2,0.3,0.4,0.6,0.7,0.9h19.5c-0.1-0.3-0.3-0.6-0.5-0.9c-3.2-5.8-12.8-23.2-21.6-41.3
	c-9.5-19.4-18.3-39.5-17.5-46.8C461.4,520.4,454.8,570.5,481.1,606.9z"/>
<path class="st2" d="M512.4,261.9c0,0-43.5,42.6-25.2,47.9s39.2-39.2,39.2-39.2L512.4,261.9z"/>
<polygon class="st2" points="555.9,405.5 550.7,429.9 589.8,431.6 583.7,405.5 "/>
<polygon class="st2" points="679.4,556 674.2,580.4 713.4,582.1 707.3,556 "/>
<path class="st0" d="M610.7,242.8l3.5,13.9c0,0-96.6-19.1-91.4,29.6s27.8,95.7,27.8,95.7s-1.7,15.7,1.7,18.3s0,11.3,0,11.3
	s32.2,4.4,33.1-3.5c0.5-5.2,0.2-10.5-0.9-15.7c0,0,1.7,0,0-8.7s-8.8-78.9-14-88.4c0,0,46.2,35.4,70.5,31c0,0-3.5,34.8,10.4,80.9
	s13.9,51.3,13.9,51.3s16.5,87.9,12.2,98.3l-0.9,4.4H709c0,0-2.6-46.1,0-52.2c2.6-6.1,2.6-58.3-12.2-84.4
	c-10.5-18.5-8.5-72.1-2.8-93.3c4.8-17.8,6-31.5,3.2-49.7c-3-19.5-12-29.7-23-38.9L610.7,242.8z"/>
<circle class="st2" cx="636.4" cy="80.5" r="31.3"/>
<path class="st2" d="M628.1,102.7c0,0,9.6,27.8,8.7,33.1s27.8-10.4,27.8-10.4s-11.3-27.8-7.8-35.7L628.1,102.7z"/>
<path class="st3" d="M662.9,115.8L632.5,128l1.7,10.4c0,0-2.6,3.5-1.7,5.2s-11.3,8.7-9.6,11.3s-10.4,13.1-9.6,15.7
	s-27.8,18.3-12.2,48.7c0,0,8.1,10.6,7.1,23c0,0.4-0.1,0.9-0.1,1.3c-1.7,13.1,66.1-1.7,66.1-1.7v-14.8c0,0,6.1-2.6,5.2-13.9
	s-6.1-6.1,0-12.2s6.1-5.2,5.2-10.4c-0.3-2.1-0.4-9.6-0.4-17.8c0.1-17.4-5.6-34.4-16.2-48.3l0,0L662.9,115.8z"/>
<path class="st3" d="M646.4,138.4l-56.6,59.2l-82.7,65.3l18.3,14.8l152.3-101.8C677.7,175.8,690.8,120.1,646.4,138.4z"/>
<path class="st0" d="M558.5,418.5c0,0-6.1-10.4-10.4-7l-30.5,24.4c0,0-53.9,15.7-1.7,27.8c0,0,28.7,4.4,34.8,0s15.7-3.5,18.3-1.7
	s35.7-0.9,35.7-7.8s-18.2-37.4-18.2-37.4S575.9,429,558.5,418.5z"/>
<path class="st0" d="M682.1,569.1c0,0-6.1-10.4-10.4-7l-30.5,24.4c0,0-53.9,15.7-1.7,27.8c0,0,28.7,4.4,34.8,0
	c6.1-4.4,15.7-3.5,18.3-1.7s35.7-0.9,35.7-7.8s-18.2-37.4-18.2-37.4S699.5,579.5,682.1,569.1z"/>
<path class="st0" d="M598.8,68.1c0,0,5.3-46.6,50.6-33.3c0,0,32-6.5,43.4,33.5l11.5,42l-5.3-2.7l-2.3,5.3l-8.4,2.3l-3.7-7.1
	l-1.6,8.7l-58,11.7c0,0,19.6-22.4,19.5-55.2l-5.8,6.3L598.8,68.1z"/>
<rect x="215.2" y="30.3" class="st0" width="72.4" height="90.3"/>
<polygon class="st4" points="155.4,451.7 145.5,488 161.9,500.2 166.3,496.9 174,459.4 "/>
<polygon class="st4" points="279.4,448.4 276.1,492.4 297,492.4 297,451.7 "/>
<polygon class="st4" points="213.5,169.6 213.5,196.1 254.1,202.7 289.3,188.4 282.7,171.8 "/>
<path class="st0" d="M246.5,191.7l-35.1-6.6l-8.8,71.6l-22,89.2c0,0-32.9,76-28.5,93.6l2.2,5.5l-2.2,9.9l22,8.8l8.8-14.3
	c0,0,6.6,9.9,17.6-11s57.1-150.9,57.1-150.9l7.7,22c-2,6.8-2.4,14-1.1,20.9c2.2,11,4.4,45.2,4.4,45.2s-12.1,59.5,4.4,63.9l3.3,13.2
	l23.1,2.2l4.4-13.2c0,0,22-7.7,16.5-46.3c-5.5-38.6-7.7-165.3-7.7-165.3l-21.6-53.5L246.5,191.7z"/>
<path class="st0" d="M152.1,485.8c0,0-5.5-4.4-7.7-3.3s-25.2,30.8-25.2,30.8s-24.1,18.7-6.6,20.9s65.9-22,65.9-27.5
	c0-5.5-10.1-19.3-10.1-19.3S160.8,493.5,152.1,485.8z"/>
<path class="st0" d="M273.9,482.5c0,0,19.8-1.2,23.1,2.1s2.2,19.9,2.2,19.9s2.2,29.7-15.4,29.7s-13.2-19.8-13.2-19.8L273.9,482.5z"
	/>
<ellipse class="st4" cx="254.1" cy="45.1" rx="27.4" ry="27.5"/>
<path class="st4" d="M236,62.2c0,0,15.4,18.7-15.4,33.1s22,73.8,22,73.8s61.5-23.1,56-68.3c0,0-37.3-6.6-28.5-37.5L236,62.2z"/>
<path class="st4" d="M219.6,94.2c0,0-25.2-3.3-26.3,17.6s0,71.6,0,71.6s-11,44.1-5.5,82.6c0,0-6.6,45.2,11,43s4.4-46.3,4.4-46.3
	l7.7-71.6l-3.3-52.9l14.3-32L219.6,94.2z"/>
<path class="st4" d="M292.2,99c0,0,23.9-0.5,25,17.2s-7.7,71.6-7.7,71.6l-13.2,6.6L284.3,157L292.2,99z"/>
<path class="st4" d="M299.1,189.5L297,195l6.6,16.5c0,0-26.3,20.9-24.1,25.3s14.3-5.5,14.3-5.5l17.6,8.8c0,0,14.3-15.4,7.7-29.7
	c-3.6-7.7-6.7-15.7-9.1-23.8C309.8,186.6,300.2,186.2,299.1,189.5z"/>
<path class="st1" d="M214.6,90.3l-3.3,36.4c0,0-15.4,15.4,2.2,36.4l-2.2,16.5c0,0,40.6-2.2,48.3,0c7.7,2.2,31.4-1.8,31.4-1.8
	l0.4-12.5c0,0,11-15.4,7.7-38.6c-3.3-23.1,0-30.8,0-30.8l-7.7-1.1c0,0-4.9,33.6-39,36.9c0,0-42.3,3.9-30.2-41.3L214.6,90.3z"/>
<path class="st0" d="M256.9,0.5c0,0-28.5-1.8-35.1,16s-18.1,27.2-18.1,27.2s-18.2,12.7-9.1,35.3c0,0-28.2,19-9.6,36
	c0,0-1.1,16.9,9.9,28.5c0,0,8.8,4.5,5.5,7.1s22,0.9,19.8-23.2s12.6-41,12.6-41s-14.3-31.2-7.7-41.9c4-6.5,5.7-11.3,9-14.1
	c1.8-1.5,3.6-3.2,5.1-5c3-3.8,8.1-5.4,12.7-4c9.9,2.7,12.1,10.7,12.1,10.7s7.1,19.1,19.2,28.1c12.1,8.9-9.3,24.5-9.3,24.5
	s3.7,18.4,13.4,29.2s-2.8,20.3-3.5,21.6c-1.6,2.8-8.2,20.3,18.9,20.4c0,0,6.3-13.3,15.1-21.3c8.8-8,2.2-31.2,2.2-31.2
	s13.2-8-1.1-27.6c0,0,4.4-17.8-7.7-29.4C311.2,46.4,294.2-5.7,256.9,0.5z"/>
<ellipse class="st5" cx="224.5" cy="44.6" rx="2.7" ry="4.4"/>
<rect x="26.1" y="499" class="st0" width="67.4" height="7.8"/>
<ellipse class="st0" cx="93.4" cy="502.9" rx="5.9" ry="23.4"/>
<ellipse class="st0" cx="26.1" cy="502.9" rx="5.9" ry="23.4"/>
<rect x="10.1" y="499" class="st0" width="67.4" height="7.8"/>
<ellipse class="st0" cx="77.4" cy="502.9" rx="5.9" ry="23.4"/>
<ellipse class="st0" cx="10.1" cy="502.9" rx="5.9" ry="23.4"/>
<rect x="776.4" y="577.8" class="st0" width="67.4" height="7.8"/>
<ellipse class="st0" cx="843.8" cy="581.7" rx="5.9" ry="23.4"/>
<ellipse class="st0" cx="776.4" cy="581.7" rx="5.9" ry="23.4"/>
</svg>
